<svg xmlns="http://www.w3.org/2000/svg" width="140" height="23" viewBox="0 8 140 23"><desc>  Created with Sketch.</desc><g fill="none"><path d="M0.3 8.6L15.1 8.6 15.1 11.8 4 11.8 4 17.4 13.7 17.4 13.7 20.5 4 20.5 4 30 0.3 30 0.3 8.6ZM17 8.6L20.4 8.6 20.4 30 17 30 17 8.6ZM36.4 26.6C36.4 27 36.5 27.3 36.6 27.5 36.7 27.6 36.9 27.7 37.3 27.7L37.6 27.7C37.8 27.7 37.9 27.7 38.1 27.7L38.1 30C38 30.1 37.8 30.1 37.6 30.2 37.4 30.2 37.2 30.3 37 30.3 36.8 30.3 36.6 30.4 36.4 30.4 36.2 30.4 36.1 30.4 35.9 30.4 35.2 30.4 34.7 30.3 34.2 30 33.7 29.7 33.4 29.2 33.3 28.5 32.6 29.2 31.8 29.7 30.8 30 29.8 30.3 28.8 30.4 27.9 30.4 27.2 30.4 26.6 30.3 25.9 30.1 25.3 29.9 24.7 29.7 24.2 29.3 23.7 28.9 23.3 28.5 23.1 27.9 22.8 27.3 22.6 26.7 22.6 25.9 22.6 24.9 22.8 24.2 23.1 23.6 23.5 22.9 24 22.5 24.5 22.1 25.1 21.8 25.7 21.6 26.4 21.4 27.2 21.3 27.9 21.1 28.6 21.1 29.2 20.9 29.8 20.9 30.4 20.8 30.9 20.8 31.4 20.7 31.8 20.6 32.3 20.4 32.6 20.2 32.9 20 33.1 19.7 33.2 19.4 33.2 18.9 33.2 18.4 33.1 18.1 32.9 17.8 32.7 17.5 32.5 17.3 32.1 17.1 31.8 17 31.5 16.9 31.1 16.8 30.7 16.8 30.4 16.8 30 16.8 29.1 16.8 28.3 17 27.7 17.4 27 17.8 26.7 18.4 26.6 19.2L23.2 19.2C23.2 18.2 23.5 17.4 23.9 16.7 24.3 16.1 24.9 15.6 25.5 15.2 26.2 14.7 26.9 14.5 27.7 14.3 28.5 14.1 29.4 14.1 30.2 14.1 31 14.1 31.7 14.1 32.5 14.3 33.2 14.5 33.9 14.7 34.5 15.1 35.1 15.5 35.5 15.9 35.9 16.5 36.3 17.1 36.4 17.7 36.4 18.6L36.4 26.6ZM33 22.2C32.5 22.6 31.9 22.8 31.1 22.8 30.3 22.9 29.6 23 28.8 23.2 28.5 23.2 28.1 23.3 27.8 23.4 27.4 23.5 27.1 23.7 26.9 23.9 26.6 24.1 26.4 24.3 26.3 24.6 26.1 24.9 26 25.3 26 25.7 26 26.1 26.1 26.4 26.4 26.7 26.6 27 26.9 27.2 27.2 27.3 27.5 27.5 27.8 27.6 28.2 27.6 28.6 27.7 28.9 27.7 29.2 27.7 29.6 27.7 30 27.7 30.4 27.6 30.9 27.5 31.3 27.3 31.7 27.1 32.1 26.8 32.4 26.5 32.6 26.1 32.9 25.8 33 25.3 33 24.8L33 22.2ZM37.9 14.5L40.5 14.5 40.5 9.8 43.9 9.8 43.9 14.5 47 14.5 47 17 43.9 17 43.9 25.3C43.9 25.7 43.9 26 43.9 26.3 44 26.5 44 26.7 44.1 26.9 44.3 27.1 44.4 27.2 44.6 27.3 44.9 27.4 45.2 27.5 45.5 27.5 45.8 27.5 46 27.4 46.3 27.4 46.5 27.4 46.7 27.4 47 27.3L47 30C46.6 30 46.2 30 45.9 30.1 45.5 30.1 45.1 30.2 44.8 30.2 43.9 30.2 43.1 30.1 42.6 29.9 42 29.7 41.6 29.5 41.3 29.1 41 28.8 40.8 28.4 40.7 27.9 40.6 27.4 40.5 26.8 40.5 26.2L40.5 17 37.9 17 37.9 14.5ZM51.3 25C51.4 26 51.8 26.7 52.5 27.1 53.1 27.5 53.9 27.7 54.9 27.7 55.2 27.7 55.5 27.7 55.9 27.6 56.4 27.6 56.7 27.5 57.1 27.4 57.5 27.2 57.8 27 58 26.7 58.2 26.5 58.3 26.1 58.3 25.7 58.3 25.2 58.1 24.9 57.8 24.6 57.5 24.3 57.1 24.1 56.7 23.9 56.2 23.8 55.7 23.6 55.1 23.5 54.5 23.4 53.9 23.2 53.2 23.1 52.6 23 52 22.8 51.4 22.6 50.8 22.4 50.3 22.1 49.8 21.8 49.3 21.4 49 21 48.7 20.5 48.4 19.9 48.3 19.3 48.3 18.5 48.3 17.7 48.5 17 48.9 16.4 49.3 15.8 49.8 15.4 50.4 15 51.1 14.7 51.8 14.4 52.5 14.3 53.3 14.1 54 14.1 54.7 14.1 55.5 14.1 56.3 14.2 57 14.3 57.8 14.5 58.4 14.8 59 15.2 59.6 15.5 60.1 16 60.5 16.6 60.9 17.2 61.1 18 61.2 18.8L57.6 18.8C57.5 18 57.1 17.5 56.5 17.2 55.9 16.9 55.3 16.8 54.5 16.8 54.3 16.8 54 16.8 53.6 16.8 53.3 16.9 53 16.9 52.7 17.1 52.4 17.2 52.2 17.3 52 17.5 51.8 17.7 51.7 18 51.7 18.4 51.7 18.8 51.8 19.1 52.1 19.4 52.4 19.6 52.8 19.9 53.2 20 53.7 20.2 54.3 20.3 54.9 20.5 55.5 20.6 56.1 20.7 56.7 20.9 57.3 21 57.9 21.2 58.5 21.4 59.1 21.6 59.7 21.8 60.1 22.2 60.6 22.5 61 22.9 61.3 23.5 61.6 24 61.7 24.6 61.7 25.4 61.7 26.3 61.5 27.1 61.1 27.7 60.7 28.4 60.1 28.9 59.5 29.3 58.8 29.7 58 30 57.2 30.2 56.4 30.3 55.6 30.4 54.8 30.4 53.8 30.4 52.9 30.3 52.1 30.1 51.2 29.9 50.5 29.5 49.9 29.1 49.3 28.6 48.8 28.1 48.5 27.4 48.1 26.7 47.9 25.9 47.9 25L51.3 25ZM62.1 14.5L64.7 14.5 64.7 9.8 68.1 9.8 68.1 14.5 71.2 14.5 71.2 17 68.1 17 68.1 25.3C68.1 25.7 68.1 26 68.1 26.3 68.2 26.5 68.2 26.7 68.3 26.9 68.5 27.1 68.6 27.2 68.8 27.3 69.1 27.4 69.4 27.5 69.7 27.5 70 27.5 70.2 27.4 70.5 27.4 70.7 27.4 70.9 27.4 71.2 27.3L71.2 30C70.8 30 70.4 30 70.1 30.1 69.7 30.1 69.3 30.2 69 30.2 68.1 30.2 67.3 30.1 66.8 29.9 66.2 29.7 65.8 29.5 65.5 29.1 65.2 28.8 65 28.4 64.9 27.9 64.8 27.4 64.7 26.8 64.7 26.2L64.7 17 62.1 17 62.1 14.5ZM86.6 30L83.2 30 83.2 27.8 83.2 27.8C82.7 28.6 82.1 29.2 81.3 29.7 80.5 30.2 79.6 30.4 78.7 30.4 76.7 30.4 75.2 29.9 74.3 28.9 73.4 27.9 73 26.4 73 24.3L73 14.5 76.4 14.5 76.4 24C76.4 25.4 76.6 26.3 77.2 26.9 77.7 27.4 78.4 27.7 79.3 27.7 80.1 27.7 80.7 27.6 81.1 27.4 81.6 27.2 82 26.9 82.3 26.5 82.6 26.1 82.8 25.7 83 25.2 83.1 24.6 83.2 24.1 83.2 23.5L83.2 14.5 86.6 14.5 86.6 30ZM104.1 30L100.9 30 100.9 27.9 100.8 27.9C100.3 28.8 99.7 29.4 98.8 29.8 97.9 30.2 97 30.4 96 30.4 94.8 30.4 93.7 30.2 92.8 29.8 91.9 29.3 91.1 28.8 90.5 28 89.9 27.3 89.5 26.4 89.2 25.4 88.9 24.4 88.7 23.3 88.7 22.1 88.7 20.7 88.9 19.5 89.3 18.5 89.7 17.5 90.2 16.7 90.8 16 91.5 15.3 92.2 14.8 93 14.5 93.8 14.2 94.6 14.1 95.5 14.1 95.9 14.1 96.4 14.1 96.9 14.2 97.4 14.3 97.9 14.4 98.4 14.6 98.8 14.8 99.3 15.1 99.7 15.4 100 15.7 100.4 16.1 100.6 16.5L100.7 16.5 100.7 8.6 104.1 8.6 104.1 30ZM92.2 22.4C92.2 23.1 92.3 23.7 92.4 24.4 92.6 25 92.9 25.6 93.2 26.1 93.6 26.6 94 27 94.5 27.3 95.1 27.6 95.7 27.7 96.5 27.7 97.2 27.7 97.9 27.6 98.4 27.2 99 26.9 99.4 26.5 99.8 26 100.1 25.5 100.4 24.9 100.6 24.2 100.7 23.6 100.8 22.9 100.8 22.2 100.8 20.5 100.4 19.2 99.7 18.2 98.9 17.2 97.8 16.8 96.5 16.8 95.7 16.8 95 16.9 94.5 17.3 93.9 17.6 93.5 18 93.1 18.6 92.8 19.1 92.5 19.7 92.4 20.4 92.2 21 92.2 21.7 92.2 22.4ZM107.2 8.6L110.7 8.6 110.7 11.8 107.2 11.8 107.2 8.6ZM107.2 14.5L110.7 14.5 110.7 30 107.2 30 107.2 14.5ZM120.8 30.4C119.6 30.4 118.5 30.2 117.5 29.8 116.5 29.4 115.7 28.8 115 28.1 114.4 27.4 113.8 26.5 113.5 25.5 113.1 24.5 113 23.4 113 22.2 113 21 113.1 20 113.5 19 113.8 18 114.4 17.1 115 16.4 115.7 15.7 116.5 15.1 117.5 14.7 118.5 14.3 119.6 14.1 120.8 14.1 122 14.1 123.1 14.3 124.1 14.7 125.1 15.1 125.9 15.7 126.6 16.4 127.2 17.1 127.8 18 128.1 19 128.5 20 128.6 21 128.6 22.2 128.6 23.4 128.5 24.5 128.1 25.5 127.8 26.5 127.2 27.4 126.6 28.1 125.9 28.8 125.1 29.4 124.1 29.8 123.1 30.2 122 30.4 120.8 30.4ZM120.8 27.7C121.6 27.7 122.2 27.6 122.8 27.2 123.3 26.9 123.8 26.5 124.2 26 124.5 25.5 124.8 24.9 125 24.2 125.1 23.6 125.2 22.9 125.2 22.2 125.2 21.6 125.1 20.9 125 20.3 124.8 19.6 124.5 19 124.2 18.5 123.8 18 123.3 17.6 122.8 17.3 122.2 16.9 121.6 16.8 120.8 16.8 120 16.8 119.4 16.9 118.8 17.3 118.3 17.6 117.8 18 117.4 18.5 117.1 19 116.8 19.6 116.6 20.3 116.5 20.9 116.4 21.6 116.4 22.2 116.4 22.9 116.5 23.6 116.6 24.2 116.8 24.9 117.1 25.5 117.4 26 117.8 26.5 118.3 26.9 118.8 27.2 119.4 27.6 120 27.7 120.8 27.7Z" fill="#1E242C"/><path d="M131.5 13L131.5 8.6 133.1 8.6 133.1 8.1 129.3 8.1 129.3 8.6 130.9 8.6 130.9 13 131.5 13ZM134.9 13L134.9 9.2 134.9 9.2 136.5 13 137 13 138.5 9.2 138.6 9.2 138.6 13 139.2 13 139.2 8.1 138.4 8.1 136.8 12.1 136.7 12.1 135 8.1 134.3 8.1 134.3 13 134.9 13Z" fill="#1F252C"/></g></svg>