<svg xmlns="http://www.w3.org/2000/svg" width="213" height="30"><g fill="#FFFFFE" fill-rule="evenodd"><path d="M12.52.013c-.202.01-.398.06-.587.18.777.156 1.688.26 2.178.967.25.26.17.66-.07.89-.46.553-1.26.726-1.94.55C9.78 2.054 7.59.994 5.21.718c-1.276-.168-2.52.444-3.4 1.33C1 2.858.706 4.09.866 5.205c.18.88.834 1.796 1.78 1.925-.56-.606-.667-1.66-.086-2.293.328-.407.912-.463 1.398-.388 1.842.34 3.638.89 5.476 1.26 1.03.28 2.046.61 3.098.8.02 1.25.02 2.51 0 3.76-.68.5-1.327 1.05-1.993 1.57.64.48 1.31.94 1.98 1.39.04 1.77-.01 3.54.02 5.32-1.1.84-2.57.98-3.9.82-1.42-.08-2.68-.92-3.61-1.95 1.55-.83 3.14-1.61 4.73-2.37.06-2.8.01-5.6.02-8.4-1.99.83-3.96 1.71-5.94 2.56.57-1.47 1.74-2.65 3.13-3.36-.37.02-.75-.01-1.09.15C3.31 7.06 1.16 9.27.35 11.96c-.54 1.707-.365 3.575.22 5.246.727 1.856 2.07 3.5 3.85 4.44 1 .517 2.077 1 3.22 1.014 2.375.197 4.87-.696 6.47-2.48.7-.747 1.05-1.724 1.4-2.668.32-.93.466-1.92.433-2.905-.768 1.52-1.79 2.95-3.184 3.958.01-1.77 0-3.538.01-5.306.61-.47 1.22-.93 1.8-1.41-.6-.54-1.2-1.07-1.8-1.6V6.52c1.36-.07 2.92-.79 3.28-2.21.26-.93.39-2.03-.18-2.87-.52-.59-1.2-1.11-2-1.25-.44-.04-.91-.21-1.35-.19zM6.173 8.54c-.005 2.694.016 5.39-.01 8.084-.45.177-.894.37-1.337.566-.818-1.18-1.326-2.57-1.56-3.982-.064-1.19.158-2.398.573-3.515.78-.373 1.55-.775 2.33-1.154zM161.733.013c-.218-.007-.432.036-.633.18.458.106.943.15 1.372.366.382.18.635.56.767.95.07.42-.24.81-.62.97-.67.31-1.43.16-2.11-.02-1.63-.5-3.22-1.14-4.88-1.53-.86-.18-1.75-.36-2.62-.13-.94.26-1.89.71-2.44 1.54-.72.92-.81 2.18-.46 3.26.28.72.87 1.43 1.69 1.52-.27-.35-.73-.69-.6-1.18.07-.49.27-.98.66-1.3.39-.29.92-.29 1.37-.16 1.66.31 3.27.77 4.91 1.16 1.11.24 2.18.65 3.29.86.02 1.25 0 2.5.01 3.75-.6.53-1.21 1.06-1.8 1.6.6.46 1.18.93 1.79 1.38.01 1.78 0 3.56.01 5.34-1.05.78-2.44.98-3.71.8-1.41-.09-2.65-.93-3.58-1.94.38-.27.82-.44 1.23-.65 1.16-.57 2.31-1.17 3.48-1.72.04-2.8 0-5.6.02-8.41-1.98.84-3.94 1.72-5.92 2.54.45-1.08 1.17-2.06 2.15-2.72.29-.27.59-.55.98-.64-.4.02-.81.01-1.18.2-2.8 1.12-5.18 3.59-5.71 6.61-.2 1.54-.06 3.13.48 4.59.69 1.71 1.9 3.23 3.48 4.2.75.46 1.56.82 2.41 1.08 2.03.33 4.2.04 5.97-1.03 1.17-.82 2.26-1.87 2.75-3.24.52-1.17.73-2.44.76-3.71-.25.32-.39.7-.6 1.04-.68 1.13-1.55 2.15-2.61 2.93.01-1.78-.02-3.55.02-5.32.6-.44 1.16-.92 1.77-1.35-.56-.58-1.19-1.08-1.79-1.62-.01-1.24.02-2.49-.01-3.73 1.17-.07 2.344-.6 2.97-1.62.652-1.05.65-2.48.02-3.53-.48-.65-1.26-1.07-2.06-1.19-.36-.03-.74-.18-1.107-.19zm-6.396 8.523c.015 2.69 0 5.38.006 8.07-.46.19-.914.394-1.372.587-.66-.933-1.18-1.983-1.44-3.1-.29-1.46-.21-3.045.47-4.394.79-.38 1.57-.77 2.35-1.17zM60.62.91c.76 1.326.285 3.125-.858 4.08-.702.457-1.51.71-2.3.964.018 5.428.003 10.857.005 16.285.056.24-.172.44-.406.34-.46-.02-.58-.51-.78-.84-2.84-5.22-5.66-10.46-8.52-15.67-.05 3.83 0 7.67-.02 11.5 1.36.25 2.68.9 3.56 1.98.41-.32.68-.88 1.21-1.01-.13.24-.32.44-.51.64l-3.07 3.4c-.47-.6-1.11-1.17-1.9-1.25-.52-.02-1.12 0-1.5.41-.43.39-.73 1.05-.41 1.6.37.8 1.29 1.01 2.06 1.2-.97.19-2.05.08-2.83-.57-.62-.53-1.18-1.21-1.35-2.03-.22-1.13.12-2.39.97-3.19.93-.92 2.29-1.26 3.56-1.18.03-1.67.02-3.34.01-5.01-.62-.1-1.46-.01-1.74.63-.17.52.22.96.61 1.25-.48-.09-1.01-.18-1.36-.55-.41-.51-.73-1.1-.85-1.75-.12-.83.1-1.77.79-2.31.72-.56 1.68-.63 2.57-.61v-3.5c-.32-.48-.63-1.03-1.18-1.28-.36-.15-.83-.2-1.14.07-.42.37-.53.94-.7 1.45-.16-1.23-.04-2.63.83-3.59 1.04-1.35 3.25-1.4 4.39-.15.5.51.84 1.14 1.17 1.75 2.11 3.76 4.18 7.54 6.32 11.29.02-3.1.02-6.21 0-9.32-.36-.14-.77-.13-1.15-.26-.69-.18-1.27-.63-1.78-1.11-.32.38-.64.75-.94 1.15l-.28-.15c1.1-1.38 2.27-2.7 3.41-4.04.6.63 1.38 1.14 2.27 1.2.93-.11 1.85-.85 1.91-1.83zm71.094 3.005c1.528-.994 3.054-1.997 4.587-2.983.02 5.865-.01 11.732.02 17.597.33.45.79.82 1.19 1.21.25-.27.52-.53.78-.79l.25.24c-1.22 1.06-2.41 2.15-3.64 3.2-.78-.8-1.58-1.56-2.35-2.36-.34.3-.66.64-.98.97l-.26-.21c.59-.56 1.22-1.08 1.81-1.63V5.82c-.01-.83-.44-1.83-1.37-1.93zm-114.116.173c1.316-.98 2.606-1.993 3.923-2.968.01 3.23 0 6.464.01 9.697 1.12-.918 2.24-1.825 3.34-2.755.89.916 1.71 1.89 2.63 2.777.39-.28.78-.54 1.19-.79-.07.51-.68.69-1 1.04.01 1.76 0 3.53 0 5.3.03 1.32-.16 2.63-.2 3.95-.06 1.43-.61 2.89-1.73 3.83-.91.81-2.15 1.1-3.34 1.2-.02.03-.06.08-.08.11l.03-.11c-.41 0-.81-.02-1.22-.05.51-.26 1.09-.43 1.5-.87.47-.52 1.01-1.01 1.23-1.68.37-1.03.39-2.14.42-3.22-.01-2.42.01-4.85-.01-7.27-.54-.71-1.19-1.33-1.76-2-.31.33-.69.61-.96.98-.02 2.5 0 5-.01 7.5.33.32.65.64.98.96l.79-.8.24.23c-1.27.99-2.53 2-3.81 3-.8-.72-1.59-1.45-2.39-2.18-.26.19-.53.4-.8.59l-.22-.24c.61-.39 1.21-.8 1.82-1.21V5.84c-.01-.34.01-.706-.17-1.01-.12-.23-.39-.304-.59-.444-.04-.15.17-.21.25-.306zm87.716-2.358c-1.197.966-2.367 1.963-3.553 2.945-.01-.926.02-1.85-.01-2.775-.18-.008-.26.074-.24.248 0 6.542.01 13.083 0 19.624-.64-.123-1.29-.252-1.93-.397-.01-5.517 0-11.033 0-16.55-.01-.7-.24-1.4-.7-1.933-.57-.678-1.47-.992-2.33-1.052-1.02-.03-1.96.51-2.68 1.2-.66.625-1.01 1.59-.82 2.486.08-.555.26-1.18.78-1.49.56-.24 1.31-.046 1.65.48.29.424.32.955.33 1.452.01 1.49 0 2.982 0 4.475-.98.015-2.15.174-2.72 1.087-.57.714-.75 1.727-.35 2.567.26.832 1.12 1.26 1.93 1.392-.45-.3-.91-.81-.65-1.38.36-.58 1.18-.66 1.78-.49.03 2.64.02 5.29.01 7.94-.9.31-1.78.86-2.26 1.71-.35.6-.36 1.33-.33 2.01.11 1.19.9 2.28 1.96 2.82.8.37 1.7.38 2.57.35 2.46-.15 4.79-1.12 7.26-1.2.74-.06 1.17.75.97 1.39-.14.57-.62.96-1.08 1.29.87-.19 1.73-.51 2.4-1.1.76-.65 1.11-1.69 1.07-2.66-.06-.97-.84-1.69-1.65-2.1-1.07-.63-2.36-.49-3.53-.36-2.2.25-4.36.95-6.59 1.01-.75.05-1.46-.48-1.61-1.22-.17-.72.41-1.34 1-1.65 1.27-.6 2.73-.38 4.06-.1 1.53.16 2.98.79 4.51.94.88.1 1.81-.07 2.52-.6.74-.46 1.07-1.35 1.09-2.18.01-5.21-.01-10.41.01-15.62.48-.41 1.01-.79 1.42-1.26-.58.14-.94.68-1.42 1.02-.94-.78-1.85-1.58-2.78-2.37zm-2.604 2.63c.535.458 1.062.924 1.595 1.386 0 1.64-.004 3.28 0 4.92-.253.248-.53.512-.9.56-.605.126-1.192-.172-1.647-.545.003-1.91 0-3.82 0-5.74.318-.19.636-.38.952-.58zm-.952 6.776c.782.396 1.788.516 2.547.003-.002.74-.002 1.49 0 2.23-.308-.3-.704-.54-1.146-.54-.52-.01-1 .23-1.41.53v-2.24zm1.395 1.935c.504.02.89.39 1.152.79-.004 2.08 0 4.16 0 6.23.04.64-.398 1.18-.88 1.55-.462.37-1.09.38-1.654.35-.03-2.71 0-5.42-.01-8.14.37-.39.83-.78 1.4-.77zm62.7-7.95c.824-.72 1.6-1.5 2.444-2.2.713.75 1.464 1.47 2.19 2.21-.87.81-1.746 1.62-2.627 2.42-.666-.81-1.35-1.6-2.008-2.42zM70.6 5.89c.517-.354 1.17-.33 1.765-.408-.45.354-.948.766-1.01 1.378-.1.546.246 1.038.65 1.366.735.587 1.678.915 2.277 1.668.288.365.462.826.45 1.29-.004 2.468.002 4.93-.004 7.398.657.53 1.317 1.054 1.973 1.584l.58-.37c-.01-2.69.02-5.383-.01-8.072-.33-.398-.8-.683-1.19-1.038.95-.875 1.88-1.768 2.84-2.617.84.82 1.73 1.6 2.59 2.4-.32.34-.66.68-1.01 1.01v7.09c.86.66 1.72 1.33 2.59 1.99l.38-.21c-.01-2.89 0-5.78-.01-8.67-.4-.34-.81-.67-1.2-1.01.93-.88 1.87-1.74 2.81-2.61.93.72 1.86 1.45 2.79 2.19.32-.36.65-.71 1.02-1.02l.19.27c-.79.7-1.57 1.42-2.34 2.15-.07 2.3 0 4.61-.03 6.92-2.01 1.32-4.12 2.53-6.16 3.81-1.08-.77-2.13-1.59-3.19-2.38-.96.77-1.91 1.54-2.88 2.29-.13.15-.27-.07-.39-.14-.9-.72-1.79-1.44-2.7-2.15-.38.33-.78.65-1.17.98-.06-.06-.18-.18-.24-.23.47-.33.93-.66 1.39-.99v-6.7c0-.6-.21-1.2-.62-1.65-.45-.49-1.05-.83-1.41-1.4-.4-.66-.43-1.48-.28-2.23.22-.84.89-1.48 1.6-1.94zm141.742 1.59c.092.235.12.496.006.73-.28.64-1.048.887-1.7.876-.683-.06-1.215-.55-1.675-1.014-.772.516-1.547 1.028-2.318 1.545-.89.597-1.87 1.038-2.856 1.45-.01 1.262 0 2.523-.01 3.787.72.6 1.46 1.17 2.16 1.786-.54.572-1.08 1.152-1.59 1.75-.53.63-1.02 1.36-1.05 2.206-.03.963.38 2.004 1.23 2.514.37.22.83.418 1.27.248-.55-.194-1.22-.59-1.17-1.252.15-.628.9-1.048 1.52-.868.64.183 1.17.642 1.58 1.157 1.65-1.188 3.39-2.25 5.2-3.187-.02-1.603.02-3.21-.02-4.812-.8-.56-1.56-1.17-2.35-1.738.83-1.057 1.68-2.174 2.02-3.496.13-.558.17-1.262-.29-1.68zm-5.324 2.403c.536.77 1.246 1.518 2.22 1.675.97.228 1.908-.297 2.543-.994-.86 1.605-2.21 2.894-3.61 4.048-.37-.4-.78-.77-1.15-1.172.02-1.185 0-2.372.01-3.557zm1.366 4.793c.418.35.83.708 1.248 1.06.19.116.098.355.124.535-.01 1.38.018 2.76-.015 4.14-.31-.7-.78-1.36-1.44-1.77-.95-.62-2.27-.66-3.24-.05-.44.25-.8.62-1.14.99.49-.94 1.27-1.68 2-2.43.84-.8 1.68-1.61 2.47-2.46zM36.408 8.07c-1.1.634-2.164 1.328-3.24 1.998-.914.475-1.842.924-2.762 1.385.004 2.575-.003 5.15.007 7.723-.392.304-.85.522-1.207.87.07.04.205.124.274.166.308-.266.613-.537.952-.763 1.14.94 2.215 1.97 3.353 2.92l.226-.12c1.93-1.49 3.88-2.96 5.8-4.45l-.24-.21c-1.07.83-2.11 1.71-3.17 2.56-.87-.79-1.72-1.61-2.6-2.4-.3-.22-.13-.63-.15-.94 1.8-1.32 3.6-2.63 5.37-3.98-.88-1.58-1.74-3.18-2.59-4.78zm-2.776 1.896c.91 1.49 1.823 2.977 2.722 4.475-.914.65-1.82 1.3-2.725 1.95-.01-2.14-.02-4.28 0-6.42zm32.558-1.9c-.775.51-1.556 1.013-2.35 1.493-1.16.72-2.417 1.27-3.632 1.89.004 2.57-.007 5.14.003 7.72-.37.28-.78.5-1.15.79l.16.27c.41-.27.81-.55 1.22-.81 1.05.99 2.1 1.97 3.16 2.96 1.97-1.46 3.9-2.97 5.84-4.45.25-.05.05-.46-.11-.3-1.05.81-2.07 1.67-3.11 2.51l-2.43-2.43c-.26-.23-.1-.62-.12-.92 1.73-1.28 3.41-2.64 5.14-3.91-.8-1.64-1.73-3.22-2.58-4.84zm-2.58 1.95c.893 1.45 1.71 2.948 2.533 4.437-.85.622-1.67 1.282-2.512 1.914-.04-2.116 0-4.234-.02-6.35zm52.816-1.944c-.85.495-1.69 1.004-2.515 1.538-.96.59-2.02 1.01-3.06 1.472.03 2.7.01 5.4.01 8.1-.34.343-.69.685-1.02 1.036l.28-.02c.25-.26.5-.514.75-.768 1.16.946 2.3 1.912 3.45 2.867.19.183.41-.09.59-.156 1.85-1 3.6-2.19 5.5-3.1.03-2.51.01-5.03.02-7.55.35-.34.69-.68 1.03-1.03l-.27.01c-.32.27-.64.52-.97.78-1.26-1.05-2.51-2.11-3.78-3.16zm-2.155 1.866c.91.852 1.84 1.693 2.75 2.548-.01 2.68 0 5.356 0 8.034-.93-.816-1.81-1.682-2.74-2.51V9.937z"/><path d="M136.46 14.072c1.312-2.01 2.652-4.002 3.997-5.99.578.49 1.304.8 2.062.876.74 0 1.37-.44 1.93-.88-.14 1.083-.51 2.21-1.34 2.964-.73.666-1.83.826-2.75.5-.54-.183-1.04-.47-1.49-.822-.08.186-.15.377-.19.573 1.86 2.8 3.69 5.624 5.52 8.446.42-.28.79-.62 1.16-.95l.28.18c-1.32 1.17-2.67 2.29-4.02 3.43-1.73-2.78-3.43-5.57-5.18-8.33zm62.99-6.002c-.81.49-1.623.982-2.423 1.49-1.107.767-2.376 1.245-3.55 1.893.013 2.573 0 5.148.006 7.72-.405.267-.804.54-1.21.8l.21.258c.35-.25.665-.56 1.042-.78 1.05.98 2.15 1.9 3.216 2.86.11.17.25 0 .36-.07 1.92-1.47 3.85-2.94 5.77-4.41-.22-.39-.48-.01-.71.15-.9.74-1.8 1.47-2.71 2.2-.92-.84-1.82-1.71-2.76-2.54-.01-.26-.01-.53 0-.79 1.81-1.3 3.59-2.63 5.37-3.96-.86-1.6-1.72-3.2-2.6-4.79zm-2.78 1.94c.975 1.438 1.83 2.957 2.745 4.437-.927.634-1.83 1.306-2.75 1.945.014-2.127 0-4.255.006-6.38zm-71.542-1.73c.728.663 1.34 1.443 2.017 2.16.736-.705 1.456-1.43 2.167-2.16.517.33 1.055.794 1.72.66.466-.032.71-.49 1.107-.676 0 .972-.23 1.994-.87 2.75-.74.882-2.14 1.14-3.13.535-.38-.19-.63-.54-.99-.76.01 2.66 0 5.31 0 7.97.52.4 1.05.8 1.59 1.19.39-.26.69-.73 1.19-.78-1.17 1.1-2.39 2.16-3.6 3.21-.92-.86-1.85-1.7-2.75-2.57-.35.31-.68.66-1.01.99l-.22-.25c.44-.49.93-.94 1.38-1.42-.02-2.28.01-4.55-.02-6.83-.24-.57-.66-1.07-.97-1.62-.42.24-.72.76-1.24.77 1.17-1.09 2.41-2.12 3.58-3.21zm47.258 2.845c1.084-.947 2.145-1.918 3.235-2.857.79.86 1.6 1.697 2.36 2.57 1.15-.83 2.26-1.722 3.4-2.57.8.854 1.58 1.722 2.39 2.57 1.13-.854 2.25-1.726 3.39-2.57.78.865 1.58 1.708 2.37 2.565.48-.306.93-.674 1.42-.967.04.284-.22.414-.4.572-.26.21-.51.432-.78.642-.02 2.367.01 4.734-.01 7.1.46.468.92.928 1.39 1.378.25-.258.5-.51.75-.775l.29.182c-1.19 1.168-2.41 2.3-3.63 3.436-.86-1.01-1.76-1.99-2.6-3.02.21-.18.4-.38.6-.57.01-2.04 0-4.08 0-6.12-.65-.72-1.29-1.45-1.96-2.15-.19.2-.39.4-.58.59 0 2.56.01 5.11-.01 7.66.33.36.69.69 1.02 1.04-.88.78-1.73 1.6-2.6 2.38-.81-.85-1.62-1.72-2.41-2.61.23-.27.68-.47.61-.9-.01-1.99.01-3.98-.01-5.97-.54-.76-1.16-1.49-1.79-2.18-.18.2-.37.39-.56.58.01 2.47-.01 4.95.01 7.42.27.46.67.83 1 1.24-.85.9-1.73 1.77-2.62 2.63-.85-1.01-1.73-1.99-2.59-3 .27-.2.54-.41.81-.62-.01-2.08-.01-4.17 0-6.26-.5-.62-1.05-1.2-1.58-1.79-.37.28-.7.63-1.13.82-.02-.19.17-.28.29-.4zm-7.538.165c1.12-1.025 2.28-2.01 3.413-3.023.81.915 1.59 1.85 2.4 2.77.42-.326.79-.712 1.25-.98-.03.146-.07.297-.21.38-.34.285-.68.573-1.03.85.01 2.372-.01 4.74.01 7.112.46.51.93 1.01 1.35 1.55.36-.22.65-.51.99-.75.07.04.22.11.29.15-1.12 1.04-2.28 2.05-3.44 3.04-.77-.93-1.57-1.85-2.36-2.76-.34.31-.63.69-1.01.96l-.21-.2c.34-.32.66-.66 1-.97.03-2.16 0-4.31.02-6.47-.02-.3.08-.66-.16-.9-.41-.52-.79-1.06-1.24-1.55-.32.26-.64.55-1 .77z"/></g></svg>